<svg version="1.1" xmlns="http://www.w3.org/2000/svg" viewBox="0 0 7125 3648.5000000000036" width="21375" height="10945.500000000011">
  <!-- svg-source:excalidraw -->
  
  <defs>
    <style class="style-fonts">
      @font-face {
        font-family: "Virgil";
        src: url("https://excalidraw.com/Virgil.woff2");
      }
      @font-face {
        font-family: "Cascadia";
        src: url("https://excalidraw.com/Cascadia.woff2");
      }
    </style>
  </defs>
  <rect x="0" y="0" width="7125" height="3648.5000000000036" fill="#ffffff"></rect><g stroke-linecap="round" transform="translate(5245 368.50000000000364) rotate(0 935 1635)"><path d="M33.18 1.05 L1837.3 -1.92 L1851.28 3.95 L1857.62 4.14 L1863.52 13.64 L1868.95 16.85 L1869.31 30.92 L1870.54 3238.65 L1867.74 3251.88 L1863.83 3257.82 L1856.11 3266.45 L1850.46 3267.42 L1839.89 3269.36 L33.74 3271.83 L16.23 3268.64 L14.17 3267.26 L3.5 3256.16 L2.46 3251.71 L-1.79 3237.57 L0.97 30.52 L2.61 19.86 L6.78 7.31 L19.59 2.33 L30.15 1.53" stroke="none" stroke-width="0" fill="#fa5252"></path><path d="M32 0 M32 0 C506.17 -0.65, 980.57 0.78, 1838 0 M32 0 C541 -4.48, 1050.98 -5.14, 1838 0 M1838 0 C1859.61 -1.33, 1870.83 9.46, 1870 32 M1838 0 C1858.5 0.83, 1869.39 8.84, 1870 32 M1870 32 C1878.8 961.73, 1879.61 1891.85, 1870 3238 M1870 32 C1859.51 1048.11, 1859.62 2063.55, 1870 3238 M1870 3238 C1871.75 3259.35, 1860.07 3268.68, 1838 3270 M1870 3238 C1871.11 3261.63, 1857.74 3271.88, 1838 3270 M1838 3270 C1176.97 3265.88, 515.7 3264.71, 32 3270 M1838 3270 C1420.8 3270.33, 1003.6 3270.05, 32 3270 M32 3270 C10.5 3270, 1.5 3259.78, 0 3238 M32 3270 C10.3 3271.29, 0.65 3259.1, 0 3238 M0 3238 C-1.12 2500.36, -1.51 1761.66, 0 32 M0 3238 C-5.66 2466.62, -5.68 1694.86, 0 32 M0 32 C-1.48 11.35, 10.59 -1.11, 32 0 M0 32 C-1.2 12.71, 12.28 1.79, 32 0" stroke="#000000" stroke-width="4" fill="none"></path></g><g stroke-linecap="round" transform="translate(10 333.50000000000364) rotate(0 935 1635)"><path d="M30.42 0.03 L1838.19 -1.93 L1851.09 0.85 L1856.61 4.85 L1864.15 11.47 L1869.87 18.14 L1868.06 32.99 L1871.06 3238.89 L1868.58 3252.19 L1867.11 3256.23 L1857.29 3264.05 L1852.75 3266.47 L1837.55 3270.72 L32.01 3271.61 L16.09 3266.07 L13.76 3263.85 L4.4 3258.12 L0.66 3251.57 L-0.19 3239.09 L-1.32 32.84 L0.96 16.91 L8.12 6.41 L18.79 2.16 L30.09 1.23" stroke="none" stroke-width="0" fill="#4c6ef5"></path><path d="M32 0 M32 0 C488.7 0.73, 945.79 0.63, 1838 0 M32 0 C735.37 -6.42, 1439.35 -6.68, 1838 0 M1838 0 C1859.58 -0.17, 1870.76 10.2, 1870 32 M1838 0 C1857.43 -1.08, 1870.69 10.64, 1870 32 M1870 32 C1868.32 698.5, 1867.32 1364.61, 1870 3238 M1870 32 C1872.53 1087.48, 1872.27 2143.17, 1870 3238 M1870 3238 C1868.74 3260.27, 1860.41 3270.66, 1838 3270 M1870 3238 C1868.91 3258.32, 1858.29 3269.97, 1838 3270 M1838 3270 C1315.1 3266.74, 790.73 3267.64, 32 3270 M1838 3270 C1383.94 3277.03, 930.13 3276.81, 32 3270 M32 3270 C12.59 3271.26, 0.06 3260.11, 0 3238 M32 3270 C12.4 3271.31, -0.1 3261.32, 0 3238 M0 3238 C3.18 2565.21, 4.02 1891.65, 0 32 M0 3238 C11.9 2417.73, 11.78 1597.6, 0 32 M0 32 C-1.39 9, 10.05 1.97, 32 0 M0 32 C0.44 12.56, 9.34 -2.22, 32 0" stroke="#000000" stroke-width="4" fill="none"></path></g><g stroke-linecap="round" transform="translate(2670 361.5000000000073) rotate(0 935 1635)"><path d="M30.42 -1.11 L1837.37 -1.35 L1853.16 1.55 L1856.81 5.05 L1864.23 12.51 L1869.13 16.35 L1870.34 32.63 L1871.71 3237.23 L1869.49 3252.43 L1863.7 3256.57 L1857.5 3266.64 L1852.08 3266.44 L1838.01 3269.18 L33.15 3268.6 L17.97 3269.64 L12.01 3266.99 L5.15 3255.8 L3.57 3253.74 L1.1 3239.65 L-1.92 30.66 L0.73 16.83 L8.06 8.26 L19.22 1.71 L30.88 -0.76" stroke="none" stroke-width="0" fill="#82c91e"></path><path d="M32 0 M32 0 C446.94 6.19, 861.65 7.32, 1838 0 M32 0 C529.39 2.91, 1027.11 2.41, 1838 0 M1838 0 C1859.84 -1.23, 1868 10.95, 1870 32 M1838 0 C1860.19 -1.08, 1870.99 11.39, 1870 32 M1870 32 C1865.92 1075.75, 1866 2118.14, 1870 3238 M1870 32 C1877.25 1042.81, 1877.32 2052.88, 1870 3238 M1870 3238 C1870.89 3259.07, 1857.65 3270.37, 1838 3270 M1870 3238 C1868.14 3259.15, 1860.57 3270.88, 1838 3270 M1838 3270 C1161.28 3274.66, 483.92 3274.02, 32 3270 M1838 3270 C1195.86 3266.57, 554.02 3266.48, 32 3270 M32 3270 C9.13 3269.16, 0.06 3260.24, 0 3238 M32 3270 C12.76 3269.15, -0.07 3258.82, 0 3238 M0 3238 C-11.36 2458.26, -11.04 1679.66, 0 32 M0 3238 C11.99 2381.52, 11.53 1524.85, 0 32 M0 32 C0.11 12.64, 10.68 -1.61, 32 0 M0 32 C2.11 9.8, 8.77 -2.02, 32 0" stroke="#000000" stroke-width="4" fill="none"></path></g><g stroke-linecap="round" transform="translate(3050.005165153125 1079.0977870034803) rotate(0 570.8240311971895 205.2401011046104)"><path d="M32.81 -0.55 L1110.86 0.92 L1122.45 2.86 L1129.32 5.79 L1136.22 14.36 L1139.42 16.54 L1142.06 30.21 L1142.06 379.79 L1139.51 392.89 L1135.99 396.88 L1129.98 407.58 L1123.74 409.82 L1110.67 412.12 L33.52 409.78 L18.42 407.54 L13.3 406.16 L5.87 397.07 L1.89 392.51 L0.5 380.12 L1.11 31.61 L2.76 19.3 L7.04 8.36 L17.41 1.37 L32.61 0.42" stroke="none" stroke-width="0" fill="#ffffff"></path><path d="M32 0 M32 0 C355.78 -2.06, 681.2 -2.3, 1109.65 0 M32 0 C269.45 -2.48, 506.51 -2.59, 1109.65 0 M1109.65 0 C1131.52 0.35, 1140.14 9.54, 1141.65 32 M1109.65 0 C1129.82 1.07, 1141.03 11.66, 1141.65 32 M1141.65 32 C1142.68 155.7, 1142.09 279.96, 1141.65 378.48 M1141.65 32 C1142.93 129.06, 1142.57 226.17, 1141.65 378.48 M1141.65 378.48 C1141.78 400.48, 1132.51 409.3, 1109.65 410.48 M1141.65 378.48 C1143.54 398.29, 1132.14 410.95, 1109.65 410.48 M1109.65 410.48 C729.47 410.08, 349.4 409.4, 32 410.48 M1109.65 410.48 C887.7 412.92, 664.93 412.9, 32 410.48 M32 410.48 C11.1 412.24, -1.2 401.2, 0 378.48 M32 410.48 C10.57 412.02, -0.25 401.27, 0 378.48 M0 378.48 C-2.98 266.15, -1.12 156.08, 0 32 M0 378.48 C1.38 262.17, 0.81 145.8, 0 32 M0 32 C0.45 11.51, 11.07 -1.89, 32 0 M0 32 C-0.99 11.42, 11.24 1.39, 32 0" stroke="#000000" stroke-width="4" fill="none"></path></g><g transform="translate(3122.7950065138284 1146.3378881080935) rotate(0 496.5 138)"><text x="0" y="74" font-family="Cascadia, Segoe UI Emoji" font-size="77.01113919572585px" fill="#000000" text-anchor="start" style="white-space: pre;" direction="ltr">- dado comprimido</text><text x="0" y="166" font-family="Cascadia, Segoe UI Emoji" font-size="77.01113919572585px" fill="#000000" text-anchor="start" style="white-space: pre;" direction="ltr">- tabela de ocorrência</text><text x="0" y="258" font-family="Cascadia, Segoe UI Emoji" font-size="77.01113919572585px" fill="#000000" text-anchor="start" style="white-space: pre;" direction="ltr">- tamanho do dado</text></g><g stroke-linecap="round" transform="translate(459.69267759640934 594.1395416632531) rotate(0 485.3073224036052 134.68881634989975)"><path d="M33.16 -0.99 L937.82 0.7 L954.33 3 L956.47 6.04 L965.69 14.48 L968.56 16.63 L972.2 31.13 L972.1 238.38 L967.53 249.71 L964.91 257.26 L957.17 263.05 L950.63 266.55 L940.39 271.26 L31.59 267.86 L17.2 268.8 L6.28 259.46 L4.24 258.28 L-0.34 245.35 L0.12 31.16 L3.61 16.79 L9.39 8.69 L17.34 2.89 L32.89 0.69" stroke="none" stroke-width="0" fill="#ffffffff"></path><path d="M32 0 M32 0 C319.39 -0.96, 608.47 0.09, 938.61 0 M32 0 C226.23 -1.13, 421.2 -1.64, 938.61 0 M938.61 0 C959.29 -0.75, 969.01 9.66, 970.61 32 M938.61 0 C961.44 0.03, 971.68 9.66, 970.61 32 M970.61 32 C973.42 95.14, 972.55 160.81, 970.61 237.38 M970.61 32 C969.51 79.6, 969.65 127.79, 970.61 237.38 M970.61 237.38 C970.33 257.03, 960.51 269.58, 938.61 269.38 M970.61 237.38 C969.36 259.5, 959.35 271.27, 938.61 269.38 M938.61 269.38 C751.03 272.12, 563.43 271.4, 32 269.38 M938.61 269.38 C603.93 267.79, 269.72 267.75, 32 269.38 M32 269.38 C10.23 268.57, 1.2 257.15, 0 237.38 M32 269.38 C8.5 271.46, -0.89 260.9, 0 237.38 M0 237.38 C0.07 159.13, -3.13 78.98, 0 32 M0 237.38 C0.38 158.47, -1.12 81.32, 0 32 M0 32 C0.02 11.2, 10 -0.04, 32 0 M0 32 C-0.09 9.63, 9.87 -1.27, 32 0" stroke="#000000" stroke-width="4" fill="none"></path></g><g transform="translate(764 670.156250456841) rotate(0 181 46)"><text x="181" y="74" font-family="Cascadia, Segoe UI Emoji" font-size="77.01113919572585px" fill="#000000" text-anchor="middle" style="white-space: pre;" direction="ltr">data.txt</text></g><g stroke-linecap="round" transform="translate(459.69267759640934 991.7922375534326) rotate(0 485.3073224036052 134.68881634989975)"><path d="M30.99 -0.37 L938.54 1.39 L952.21 3.53 L957.32 3.77 L965.37 13.24 L966.77 16.33 L969.48 30.08 L970.12 236.43 L968.61 252.06 L966.78 255.1 L959.01 262.89 L954.34 268.32 L939.12 271.18 L33.48 270.02 L16.46 265.53 L9.4 260.42 L3.57 256.31 L2.15 243.07 L-0.65 32.35 L3.07 18.44 L8.99 9.9 L19.2 2.45 L30.36 -0.57" stroke="none" stroke-width="0" fill="#ffffffff"></path><path d="M32 0 M32 0 C224.96 2.33, 418.27 3.16, 938.61 0 M32 0 C269.02 2.77, 506.75 2.51, 938.61 0 M938.61 0 C960.83 0.6, 969.03 8.89, 970.61 32 M938.61 0 C960.75 0.85, 972.43 8.76, 970.61 32 M970.61 32 C971.53 104.34, 973.59 174.28, 970.61 237.38 M970.61 32 C970.1 85.83, 970.86 141.05, 970.61 237.38 M970.61 237.38 C971.76 258.6, 960.7 270.78, 938.61 269.38 M970.61 237.38 C969.59 259.55, 961.02 268.54, 938.61 269.38 M938.61 269.38 C583.64 268.34, 227.4 266.96, 32 269.38 M938.61 269.38 C618.59 267.79, 299.15 267.85, 32 269.38 M32 269.38 C12.12 267.75, -1.74 259.07, 0 237.38 M32 269.38 C9.84 267.45, 1.95 260.16, 0 237.38 M0 237.38 C0.71 192.91, -2.28 146.01, 0 32 M0 237.38 C-0.42 163.33, -0.97 88.41, 0 32 M0 32 C-1.89 11.23, 9.23 1.87, 32 0 M0 32 C-2.27 9.15, 10.39 -0.06, 32 0" stroke="#000000" stroke-width="4" fill="none"></path></g><g transform="translate(561.5 1033.602262829585) rotate(0 383.5 92)"><text x="383.5" y="74" font-family="Cascadia, Segoe UI Emoji" font-size="77.01113919572585px" fill="#000000" text-anchor="middle" style="white-space: pre;" direction="ltr">gera o dicionário</text><text x="383.5" y="166" font-family="Cascadia, Segoe UI Emoji" font-size="77.01113919572585px" fill="#000000" text-anchor="middle" style="white-space: pre;" direction="ltr">e a árvore</text></g><g stroke-linecap="round" transform="translate(459.69267759640934 1368.065756245218) rotate(0 485.3073224036052 134.68881634989975)"><path d="M32.15 0.92 L939.38 -0.09 L951.62 3.68 L957.22 5.68 L965.22 14.22 L970.1 16.41 L970.33 33.49 L971.61 237.1 L969.39 251.13 L967.55 258.4 L957.02 266.46 L953.9 267.91 L938.05 267.74 L33.68 271.19 L18.36 267.16 L6.49 260.08 L4.88 258.75 L-1.25 245.75 L-1.13 30.94 L0.18 16.31 L7.9 7.62 L16.18 3.29 L32.22 -1.13" stroke="none" stroke-width="0" fill="#ffffffff"></path><path d="M32 0 M32 0 C344.22 -2.51, 654.34 -1.84, 938.61 0 M32 0 C323.3 1.53, 614.94 1.8, 938.61 0 M938.61 0 C961.55 1.45, 971.05 12.29, 970.61 32 M938.61 0 C962 -1.5, 972.41 10.16, 970.61 32 M970.61 32 C971.17 94.51, 970.21 160.91, 970.61 237.38 M970.61 32 C970.21 85.63, 969.63 139.67, 970.61 237.38 M970.61 237.38 C971.29 258.98, 958.18 267.98, 938.61 269.38 M970.61 237.38 C970.99 259.85, 961.36 267.12, 938.61 269.38 M938.61 269.38 C638.76 266.28, 339.48 265.66, 32 269.38 M938.61 269.38 C626.31 272.17, 313.24 271.9, 32 269.38 M32 269.38 C12.02 270.06, 1.44 260.56, 0 237.38 M32 269.38 C8.41 270.48, 1.61 259.54, 0 237.38 M0 237.38 C0.11 175.79, 1.65 111.93, 0 32 M0 237.38 C-1.03 181.4, -0.79 125.52, 0 32 M0 32 C0.85 9.24, 8.75 1.98, 32 0 M0 32 C-0.41 10.78, 12.22 0.11, 32 0" stroke="#000000" stroke-width="4" fill="none"></path></g><g transform="translate(606 1444.0824650388022) rotate(0 339 46)"><text x="339" y="74" font-family="Cascadia, Segoe UI Emoji" font-size="77.01113919572585px" fill="#000000" text-anchor="middle" style="white-space: pre;" direction="ltr">comprime o dado</text></g><g stroke-linecap="round" transform="translate(459.69267759640934 1731.5117686179638) rotate(0 485.3073224036052 192.41259478557095)"><path d="M33.35 1 L937.85 1.5 L951.15 0.85 L958.51 5.52 L966.19 11.15 L966.98 17.68 L971.59 31.95 L972.45 354.69 L967.17 367.79 L965.87 372.95 L958.57 378.94 L954.06 384.56 L939.25 385.31 L32.48 384.45 L17.34 383.69 L11.31 381.75 L3.65 373.05 L0.64 365.78 L0.94 352.56 L-1.49 32.73 L1.93 18.25 L9.3 7.92 L19.61 1.29 L30.15 -1.58" stroke="none" stroke-width="0" fill="#ffffffff"></path><path d="M32 0 M32 0 C385.91 -1.53, 740.2 -0.88, 938.61 0 M32 0 C318.13 2.92, 603.35 3.05, 938.61 0 M938.61 0 C960.5 -0.84, 971.87 11.51, 970.61 32 M938.61 0 C957.88 -1.77, 971.02 9.89, 970.61 32 M970.61 32 C968.45 121.18, 968.43 208.35, 970.61 352.83 M970.61 32 C969.2 160.01, 969.24 286.84, 970.61 352.83 M970.61 352.83 C971.27 372.57, 960.7 383.31, 938.61 384.83 M970.61 352.83 C971.89 372.22, 958.55 382.59, 938.61 384.83 M938.61 384.83 C723.43 387.59, 507.28 386.88, 32 384.83 M938.61 384.83 C734.39 385.38, 529.49 385.23, 32 384.83 M32 384.83 C11.92 383.72, -0.46 372.58, 0 352.83 M32 384.83 C11.76 383.65, -1.1 373.25, 0 352.83 M0 352.83 C1.06 250.78, -0.32 147.96, 0 32 M0 352.83 C-1.51 271.13, -2.63 189.29, 0 32 M0 32 C0.43 10.9, 10.47 1.6, 32 0 M0 32 C0.22 11.36, 10.63 -0.03, 32 0" stroke="#000000" stroke-width="4" fill="none"></path></g><g transform="translate(471 1764.770123014754) rotate(0 474 138)"><text x="474" y="74" font-family="Cascadia, Segoe UI Emoji" font-size="77.01113919572585px" fill="#000000" text-anchor="middle" style="white-space: pre;" direction="ltr">grava o dado</text><text x="474" y="166" font-family="Cascadia, Segoe UI Emoji" font-size="77.01113919572585px" fill="#000000" text-anchor="middle" style="white-space: pre;" direction="ltr">comprimido na memória</text><text x="474" y="258" font-family="Cascadia, Segoe UI Emoji" font-size="77.01113919572585px" fill="#000000" text-anchor="middle" style="white-space: pre;" direction="ltr">compartilhada</text></g><g stroke-linecap="round" transform="translate(3088.251864930062 2199.0977870034803) rotate(0 543.0311008392746 205.2401011046104)"><path d="M31.43 -1.1 L1052.99 1.92 L1066.19 3.94 L1072.46 3.4 L1083.17 12.92 L1083.89 19.1 L1084.98 33.97 L1084.7 380.28 L1083.88 393.02 L1080.49 396.6 L1072.31 406.37 L1067.03 409.94 L1052.9 410.57 L31.76 411.04 L17.92 409.01 L13.44 404.43 L2.98 398.89 L2.86 390.49 L-0.29 377.22 L0.57 30.38 L3.51 19.84 L7.78 7.05 L16.43 2.35 L32.91 -0.18" stroke="none" stroke-width="0" fill="#ffffff"></path><path d="M32 0 M32 0 C427.21 -2.41, 821.68 -2.15, 1054.06 0 M32 0 C254.6 -0.47, 477.26 -0.71, 1054.06 0 M1054.06 0 C1074.27 -1.42, 1085.94 11.28, 1086.06 32 M1054.06 0 C1075.18 -0.43, 1086.02 12.87, 1086.06 32 M1086.06 32 C1082.78 164, 1083.82 295.02, 1086.06 378.48 M1086.06 32 C1084.83 110, 1085.55 186.89, 1086.06 378.48 M1086.06 378.48 C1085.93 399.93, 1076.99 408.71, 1054.06 410.48 M1086.06 378.48 C1087.48 398.02, 1074.89 410.08, 1054.06 410.48 M1054.06 410.48 C841.42 405.65, 629.35 405.7, 32 410.48 M1054.06 410.48 C733.3 412.37, 412.52 412.35, 32 410.48 M32 410.48 C9.76 411.67, 1.83 401.68, 0 378.48 M32 410.48 C10.43 408.34, -1.3 401.97, 0 378.48 M0 378.48 C0.07 297.79, -0.33 220.2, 0 32 M0 378.48 C-0.8 277.4, -0.06 176.61, 0 32 M0 32 C-0.25 9.77, 9.4 1.47, 32 0 M0 32 C-1.77 12.29, 10.13 0.16, 32 0" stroke="#000000" stroke-width="4" fill="none"></path></g><g transform="translate(3206.0417062907654 2266.3378881080935) rotate(0 451 138)"><text x="0" y="74" font-family="Cascadia, Segoe UI Emoji" font-size="77.01113919572585px" fill="#000000" text-anchor="start" style="white-space: pre;" direction="ltr">- dado descomprimido</text><text x="0" y="166" font-family="Cascadia, Segoe UI Emoji" font-size="77.01113919572585px" fill="#000000" text-anchor="start" style="white-space: pre;" direction="ltr">- informações</text><text x="0" y="258" font-family="Cascadia, Segoe UI Emoji" font-size="77.01113919572585px" fill="#000000" text-anchor="start" style="white-space: pre;" direction="ltr">- tamanho do dado</text></g><g stroke-linecap="round" transform="translate(459.69267759638024 2219.966266977268) rotate(0 485.3073224036052 192.41259478557095)"><path d="M32.84 -1.4 L939.39 1.33 L950.82 2.61 L957.95 2.65 L966.95 14.5 L968.94 19.08 L971.27 31.89 L969.45 353.91 L970.5 366.93 L964.35 372.16 L959.18 381.48 L952.34 384.49 L937.68 383.05 L30.83 386.45 L19.03 382.02 L13.85 381.76 L4.96 372.96 L1.44 368.33 L-0.86 352.62 L-0.45 32.93 L1.17 16.62 L6.42 9.5 L16.97 1.74 L31.14 -0.31" stroke="none" stroke-width="0" fill="#ffffffff"></path><path d="M32 0 M32 0 C361.02 2.09, 690.65 2.43, 938.61 0 M32 0 C315.93 -2.5, 598.98 -2.74, 938.61 0 M938.61 0 C958.83 0.17, 971.61 10.62, 970.61 32 M938.61 0 C959.8 -0.44, 970.24 11.33, 970.61 32 M970.61 32 C971.38 155.3, 970.91 277.88, 970.61 352.83 M970.61 32 C969.9 157.25, 969.95 283.17, 970.61 352.83 M970.61 352.83 C970.12 373.52, 961.36 385.18, 938.61 384.83 M970.61 352.83 C972.54 374.08, 958.39 385.09, 938.61 384.83 M938.61 384.83 C622.25 382.95, 304.68 382.8, 32 384.83 M938.61 384.83 C749.18 387.85, 559.86 387.52, 32 384.83 M32 384.83 C12.16 385.38, 0.02 374.79, 0 352.83 M32 384.83 C11.48 382.59, 0.61 375.7, 0 352.83 M0 352.83 C0.41 259.01, -0.13 165.85, 0 32 M0 352.83 C1.27 255.41, 0.96 158.83, 0 32 M0 32 C-1.21 11.15, 10.65 -0.31, 32 0 M0 32 C1.76 11.78, 9.91 0.93, 32 0" stroke="#000000" stroke-width="4" fill="none"></path></g><g transform="translate(584 2253.2246213740564) rotate(0 361 138)"><text x="361" y="74" font-family="Cascadia, Segoe UI Emoji" font-size="77.01113919572585px" fill="#000000" text-anchor="middle" style="white-space: pre;" direction="ltr">espera o decoder</text><text x="361" y="166" font-family="Cascadia, Segoe UI Emoji" font-size="77.01113919572585px" fill="#000000" text-anchor="middle" style="white-space: pre;" direction="ltr">descomprimir o</text><text x="361" y="258" font-family="Cascadia, Segoe UI Emoji" font-size="77.01113919572585px" fill="#000000" text-anchor="middle" style="white-space: pre;" direction="ltr">dado</text></g><g stroke-linecap="round" transform="translate(459.69267759638024 2698.8598362213543) rotate(0 485.3073224036052 192.41259478557095)"><path d="M30.37 -1.42 L937.57 -0.23 L951.68 3.89 L956.84 2.86 L965.35 11.98 L970.44 17.85 L968.87 33.68 L972.08 351.05 L968.8 367.94 L967.67 372.1 L959.89 381.08 L953.32 381.94 L939.1 386.66 L32.19 383.98 L16.44 382.77 L12.49 379.45 L2.94 373.29 L0.77 365.38 L0.01 353.93 L1.87 33.32 L1.34 16.85 L9.33 7.58 L19.3 1.05 L31.87 1.81" stroke="none" stroke-width="0" fill="#ffffffff"></path><path d="M32 0 M32 0 C280.11 2.01, 528.24 1.39, 938.61 0 M32 0 C379.7 -1.83, 727.02 -1.86, 938.61 0 M938.61 0 C961.36 -1.03, 972.18 10.03, 970.61 32 M938.61 0 C957.98 -0.93, 970.98 11.82, 970.61 32 M970.61 32 C971.26 113.46, 970.52 193.52, 970.61 352.83 M970.61 32 C971.32 103.62, 972.07 175.2, 970.61 352.83 M970.61 352.83 C969.62 376.09, 959.59 384.32, 938.61 384.83 M970.61 352.83 C971.36 374.98, 960.5 383.03, 938.61 384.83 M938.61 384.83 C615.67 381.79, 292.83 382.5, 32 384.83 M938.61 384.83 C704.03 382.86, 469.38 383.03, 32 384.83 M32 384.83 C10.49 383.04, 1.84 375.64, 0 352.83 M32 384.83 C9.64 385.07, 1.63 376.44, 0 352.83 M0 352.83 C1.51 272.08, 0.76 192.46, 0 32 M0 352.83 C0.86 227.33, 0.02 100.47, 0 32 M0 32 C-1.07 8.82, 9.09 0.01, 32 0 M0 32 C1.13 11.68, 12.24 -0.64, 32 0" stroke="#000000" stroke-width="4" fill="none"></path></g><g transform="translate(516.5 2732.118190618139) rotate(0 428.5 138)"><text x="428.5" y="74" font-family="Cascadia, Segoe UI Emoji" font-size="77.01113919572585px" fill="#000000" text-anchor="middle" style="white-space: pre;" direction="ltr">imprime o resultado</text><text x="428.5" y="166" font-family="Cascadia, Segoe UI Emoji" font-size="77.01113919572585px" fill="#000000" text-anchor="middle" style="white-space: pre;" direction="ltr">da descompressão</text><text x="428.5" y="258" font-family="Cascadia, Segoe UI Emoji" font-size="77.01113919572585px" fill="#000000" text-anchor="middle" style="white-space: pre;" direction="ltr">na saída</text></g><g stroke-linecap="round" transform="translate(5694.69267759638 652.5817491179423) rotate(0 485.3073224036052 188.13675934589173)"><path d="M33.61 -0.98 L939.09 0.16 L954.42 3.06 L959.94 5.06 L965.07 12.69 L969.72 16.74 L971.7 30.95 L970.59 342.35 L967.12 356.84 L966.53 362.42 L957.97 370.73 L953.34 375.46 L938.7 374.98 L31.51 375.43 L18.46 373.38 L12.18 370.45 L5.04 363.92 L2.46 356.85 L-1.77 344.74 L1.4 30.34 L3.7 19.42 L6.36 6.18 L19.49 1.04 L31.5 -1.04" stroke="none" stroke-width="0" fill="#ffffff"></path><path d="M32 0 M32 0 C231.22 -2.51, 432.6 -2.13, 938.61 0 M32 0 C228.16 -1.52, 424.76 -1.33, 938.61 0 M938.61 0 C960.07 1.24, 969.41 9.31, 970.61 32 M938.61 0 C959.49 0.03, 969.07 10.17, 970.61 32 M970.61 32 C970.5 107.48, 970.95 182.24, 970.61 344.27 M970.61 32 C968.79 117.35, 968.69 201.9, 970.61 344.27 M970.61 344.27 C968.7 367.39, 960.9 376.36, 938.61 376.27 M970.61 344.27 C971.01 367.69, 960.49 378.57, 938.61 376.27 M938.61 376.27 C603.01 374.38, 267 373.39, 32 376.27 M938.61 376.27 C710.72 377.54, 482.74 377.93, 32 376.27 M32 376.27 C10.65 374.83, -0.05 364.31, 0 344.27 M32 376.27 C12.63 375.32, 2.21 367.3, 0 344.27 M0 344.27 C-0.18 277.14, -0.31 210.17, 0 32 M0 344.27 C1.26 238.09, 0.85 133.41, 0 32 M0 32 C-0.75 12.48, 12.04 -1.94, 32 0 M0 32 C1.76 9.36, 12.07 2.09, 32 0" stroke="#000000" stroke-width="4" fill="none"></path></g><g transform="translate(5706 694.3917743940983) rotate(0 474 138)"><text x="474" y="74" font-family="Cascadia, Segoe UI Emoji" font-size="77.01113919572585px" fill="#000000" text-anchor="middle" style="white-space: pre;" direction="ltr">lê a tabela de</text><text x="474" y="166" font-family="Cascadia, Segoe UI Emoji" font-size="77.01113919572585px" fill="#000000" text-anchor="middle" style="white-space: pre;" direction="ltr">ocorrência na memória</text><text x="474" y="258" font-family="Cascadia, Segoe UI Emoji" font-size="77.01113919572585px" fill="#000000" text-anchor="middle" style="white-space: pre;" direction="ltr">comaprtilhada</text></g><g stroke-linecap="round" transform="translate(5694.692677596409 1131.6987287540433) rotate(0 485.3073224036052 134.68881634989975)"><path d="M30.51 -1.32 L938.39 1.69 L951.99 0.22 L956.86 3.85 L965.57 12.67 L970.53 17.16 L970.52 33.57 L969.91 236.18 L969.2 251.15 L967.7 255.16 L958.13 265.31 L952.77 267.32 L938.04 270.93 L31.07 269.79 L16.74 268.79 L7.1 260 L5.03 255.5 L2.18 244.74 L-1.89 32.08 L2.93 17.68 L7.44 9.04 L17.69 1.97 L31.17 1.03" stroke="none" stroke-width="0" fill="#ffffff"></path><path d="M32 0 M32 0 C369.08 1.76, 706.65 3.19, 938.61 0 M32 0 C387.82 -2.39, 743.33 -2.14, 938.61 0 M938.61 0 C961.49 1.12, 971.22 11.09, 970.61 32 M938.61 0 C959.16 0.4, 972.91 11.43, 970.61 32 M970.61 32 C968.57 93.43, 970.13 153.88, 970.61 237.38 M970.61 32 C968.43 101.65, 968.36 171.77, 970.61 237.38 M970.61 237.38 C969.46 259.98, 960.2 267.86, 938.61 269.38 M970.61 237.38 C969.03 259.41, 958.55 268.22, 938.61 269.38 M938.61 269.38 C606.95 271.2, 274.81 272.25, 32 269.38 M938.61 269.38 C604.89 272.01, 271.45 272.22, 32 269.38 M32 269.38 C8.72 271.15, -1.14 257.83, 0 237.38 M32 269.38 C9.86 268.24, -1.98 259.63, 0 237.38 M0 237.38 C0.92 183.27, 0.49 127.05, 0 32 M0 237.38 C0.73 179.87, 1.21 123.56, 0 32 M0 32 C-0.07 10.51, 11.83 -0.84, 32 0 M0 32 C-0.13 10.85, 9.22 -1.71, 32 0" stroke="#000000" stroke-width="4" fill="none"></path></g><g transform="translate(5796.5 1173.5087540301938) rotate(0 383.5 92)"><text x="383.5" y="74" font-family="Cascadia, Segoe UI Emoji" font-size="77.01113919572585px" fill="#000000" text-anchor="middle" style="white-space: pre;" direction="ltr">gera o dicionário</text><text x="383.5" y="166" font-family="Cascadia, Segoe UI Emoji" font-size="77.01113919572585px" fill="#000000" text-anchor="middle" style="white-space: pre;" direction="ltr">e a árvore</text></g><g stroke-linecap="round" transform="translate(5694.692677596409 1490.8689056871117) rotate(0 485.3073224036052 134.68881634989975)"><path d="M33.26 0.45 L939.77 0.53 L954.6 3.51 L957.12 6.07 L966.89 12.27 L968.39 17.43 L969.63 31.54 L969.29 235.46 L967.37 250.83 L967.74 258.7 L956.87 265.35 L953.84 266.62 L937.08 271.23 L32.76 268.65 L16 268.53 L6.2 260.52 L2.7 255.16 L-1.29 245.26 L0.55 31.42 L2.14 18.86 L7.25 9.09 L16.02 0.74 L33.17 -1.9" stroke="none" stroke-width="0" fill="#ffffff"></path><path d="M32 0 M32 0 C330.07 -3.76, 628.81 -2.77, 938.61 0 M32 0 C351.47 1.64, 670.34 1.3, 938.61 0 M938.61 0 C958.79 1.07, 968.73 9.49, 970.61 32 M938.61 0 C960.15 -2.16, 971.73 10.78, 970.61 32 M970.61 32 C969.47 97.78, 972.23 163.41, 970.61 237.38 M970.61 32 C971.43 85.58, 971.53 140.45, 970.61 237.38 M970.61 237.38 C970.38 257.32, 959.15 268.43, 938.61 269.38 M970.61 237.38 C970.78 259.03, 959.2 270.09, 938.61 269.38 M938.61 269.38 C733.16 267.37, 528.34 268.09, 32 269.38 M938.61 269.38 C600.33 271.63, 262.14 271.58, 32 269.38 M32 269.38 C10.35 268.74, -0.01 257.24, 0 237.38 M32 269.38 C12.9 270.46, 0.91 257.04, 0 237.38 M0 237.38 C0.67 161.23, 0.31 81.81, 0 32 M0 237.38 C0.89 172.81, 1.53 109.16, 0 32 M0 32 C-1.92 10.33, 11.94 1.81, 32 0 M0 32 C1.81 11.89, 8.77 -0.8, 32 0" stroke="#000000" stroke-width="4" fill="none"></path></g><g transform="translate(5773.5 1566.885614480696) rotate(0 406.5 46)"><text x="406.5" y="74" font-family="Cascadia, Segoe UI Emoji" font-size="77.01113919572585px" fill="#000000" text-anchor="middle" style="white-space: pre;" direction="ltr">descomprime o dado</text></g><g stroke-linecap="round" transform="translate(5681.865171277343 1856.4528357796935) rotate(0 498.13482872264285 192.41259478557095)"><path d="M33.38 0.67 L964.7 1.32 L979.6 2.98 L985.55 2.89 L990.55 11.67 L993.51 17.2 L994.89 32.04 L995.81 353.07 L992.69 365.58 L991.85 370.62 L984.19 381.06 L979.24 381.29 L963.84 386.58 L32.98 383 L17.5 382.72 L14.1 379.47 L5.03 371.85 L0.98 366.25 L-0.34 352.18 L-0.03 33.36 L0.58 18.38 L6.11 7.63 L17.68 3.95 L33.62 1.21" stroke="none" stroke-width="0" fill="#ffffff"></path><path d="M32 0 M32 0 C220.2 -2.1, 407.09 -3.01, 964.27 0 M32 0 C300.6 -3.17, 569.92 -3.05, 964.27 0 M964.27 0 C985.53 -0.87, 997.49 10.56, 996.27 32 M964.27 0 C985.28 1, 996.09 10.57, 996.27 32 M996.27 32 C994.78 106.69, 994.99 181.13, 996.27 352.83 M996.27 32 C997.36 119.21, 996.58 205.33, 996.27 352.83 M996.27 352.83 C997.68 373.4, 984.59 386.68, 964.27 384.83 M996.27 352.83 C996.42 373.39, 986.73 386.95, 964.27 384.83 M964.27 384.83 C722.14 386.82, 478.69 386.51, 32 384.83 M964.27 384.83 C723.13 384.93, 481.68 385.34, 32 384.83 M32 384.83 C9.47 384.98, -0.26 376.11, 0 352.83 M32 384.83 C10.31 383.53, 0.14 376.21, 0 352.83 M0 352.83 C1.69 241.01, -0.52 130.42, 0 32 M0 352.83 C-2.08 255.32, -2.39 157.96, 0 32 M0 32 C1.23 9.8, 12.48 -0.18, 32 0 M0 32 C-0.25 12.53, 10.2 0.57, 32 0" stroke="#000000" stroke-width="4" fill="none"></path></g><g transform="translate(5705.5 1889.7111901764856) rotate(0 474.5 138)"><text x="474.5" y="74" font-family="Cascadia, Segoe UI Emoji" font-size="77.01113919572585px" fill="#000000" text-anchor="middle" style="white-space: pre;" direction="ltr">grava o dado</text><text x="474.5" y="166" font-family="Cascadia, Segoe UI Emoji" font-size="77.01113919572585px" fill="#000000" text-anchor="middle" style="white-space: pre;" direction="ltr">descomprimido na</text><text x="474.5" y="258" font-family="Cascadia, Segoe UI Emoji" font-size="77.01113919572585px" fill="#000000" text-anchor="middle" style="white-space: pre;" direction="ltr">memória compartilhada</text></g><g stroke-linecap="round" transform="translate(5694.692677596409 2337.4843227436377) rotate(0 485.3073224036052 134.68881634989975)"><path d="M30.8 -0.93 L937.86 1.85 L953.05 3.01 L957.93 5.16 L965.2 11.93 L968.22 19.15 L972.35 33.41 L970.85 235.61 L968.28 250.07 L967.79 258.4 L958.6 264.61 L950.79 266.66 L938.74 271.03 L30.32 267.88 L16.79 265.65 L8.97 262.21 L5.55 256.97 L-0.15 243.51 L-0.27 30.31 L2.95 16.93 L8.02 8.81 L17.61 1.45 L31.4 0.15" stroke="none" stroke-width="0" fill="#ffffff"></path><path d="M32 0 M32 0 C280.01 0.23, 527.35 0.2, 938.61 0 M32 0 C261.26 0.01, 490.36 0.23, 938.61 0 M938.61 0 C960.17 1.34, 968.99 12.53, 970.61 32 M938.61 0 C960.1 1.69, 969.63 8.86, 970.61 32 M970.61 32 C969.56 78.17, 970.13 126.41, 970.61 237.38 M970.61 32 C972.61 108.27, 972.07 182.87, 970.61 237.38 M970.61 237.38 C969.26 260.44, 959.48 269.68, 938.61 269.38 M970.61 237.38 C968.99 257.68, 959.74 268.22, 938.61 269.38 M938.61 269.38 C582.54 271.89, 226.55 272.4, 32 269.38 M938.61 269.38 C589.14 269.17, 240.67 269.28, 32 269.38 M32 269.38 C8.74 270.38, 0.33 260.17, 0 237.38 M32 269.38 C9.47 269.37, 0.76 260.65, 0 237.38 M0 237.38 C1.87 176.83, 2.97 115.42, 0 32 M0 237.38 C0.74 182.72, 1.07 127.82, 0 32 M0 32 C0.21 10.69, 9.53 -0.71, 32 0 M0 32 C-0.22 11.87, 11.63 0.26, 32 0" stroke="#000000" stroke-width="4" fill="none"></path></g><g transform="translate(5796.5 2383.5701834594674) rotate(0 383.5 92)"><text x="383.5" y="74" font-family="Cascadia, Segoe UI Emoji" font-size="77.01113919572585px" fill="#000000" text-anchor="middle" style="white-space: pre;" direction="ltr">deleta o segmento</text><text x="383.5" y="166" font-family="Cascadia, Segoe UI Emoji" font-size="77.01113919572585px" fill="#000000" text-anchor="middle" style="white-space: pre;" direction="ltr">comprimido</text></g><g stroke-linecap="round" transform="translate(459.69267759638024 3159.7547524382135) rotate(0 485.3073224036052 134.68881634989975)"><path d="M31.28 -0.8 L938.92 -1.75 L953.63 3.11 L959.44 2.51 L964.28 13.51 L969.49 16.57 L969.16 30.17 L970.02 238.39 L966.85 251.91 L965.8 258 L959.78 265.59 L951.39 268.77 L940.19 269.42 L32.06 268.35 L16.98 267.9 L9.25 263.09 L3.76 257.72 L-1.16 245.02 L0.07 32.38 L3.67 17.49 L7.39 7.21 L17.87 1.68 L31.51 -1.92" stroke="none" stroke-width="0" fill="#ffffffff"></path><path d="M32 0 M32 0 C297.99 1.32, 565.08 2.09, 938.61 0 M32 0 C232.3 -0.98, 432.27 -0.94, 938.61 0 M938.61 0 C960.77 1.17, 968.62 8.72, 970.61 32 M938.61 0 C957.96 -0.4, 970.91 10.5, 970.61 32 M970.61 32 C972.64 103.26, 970.94 172.79, 970.61 237.38 M970.61 32 C969.48 85.02, 970.96 138.99, 970.61 237.38 M970.61 237.38 C971.51 259.89, 960.55 268.23, 938.61 269.38 M970.61 237.38 C972.88 260.15, 957.89 270.12, 938.61 269.38 M938.61 269.38 C579.72 270.07, 220.05 271.01, 32 269.38 M938.61 269.38 C751.96 269.55, 565.27 269.45, 32 269.38 M32 269.38 C11.23 268.86, -0.88 258.45, 0 237.38 M32 269.38 C10.96 267.9, 0.18 259.44, 0 237.38 M0 237.38 C0.26 179.16, 0.44 124.05, 0 32 M0 237.38 C-1.43 157.1, -0.92 77.6, 0 32 M0 32 C-0.91 9.95, 10.08 -1.24, 32 0 M0 32 C1.99 9.23, 12.49 1.24, 32 0" stroke="#000000" stroke-width="4" fill="none"></path></g><g transform="translate(561.5 3205.8406131540432) rotate(0 383.5 92)"><text x="383.5" y="74" font-family="Cascadia, Segoe UI Emoji" font-size="77.01113919572585px" fill="#000000" text-anchor="middle" style="white-space: pre;" direction="ltr">deleta o segmento</text><text x="383.5" y="166" font-family="Cascadia, Segoe UI Emoji" font-size="77.01113919572585px" fill="#000000" text-anchor="middle" style="white-space: pre;" direction="ltr">descomprimido</text></g><g transform="translate(665.9021739130258 10.5) rotate(0 279.0978260869597 81)"><text x="279.09782608695656" y="130" font-family="Cascadia, Segoe UI Emoji" font-size="135.60657119247378px" fill="#000000" text-anchor="middle" style="white-space: pre;" direction="ltr">encoder</text></g><g transform="translate(5901.5 10) rotate(0 278.5 81.5)"><text x="278.5" y="131" font-family="Cascadia, Segoe UI Emoji" font-size="135.60657119247378px" fill="#000000" text-anchor="middle" style="white-space: pre;" direction="ltr">decoder</text></g><g transform="translate(3590 822.5) rotate(0 40 81.5)"><text x="40" y="131" font-family="Cascadia, Segoe UI Emoji" font-size="135.60657119247378px" fill="#000000" text-anchor="middle" style="white-space: pre;" direction="ltr">1</text></g><g transform="translate(3600 1942) rotate(0 40 81.5)"><text x="40" y="131" font-family="Cascadia, Segoe UI Emoji" font-size="135.60657119247378px" fill="#000000" text-anchor="middle" style="white-space: pre;" direction="ltr">2</text></g><g transform="translate(2770 10) rotate(0 835 81.5)"><text x="835" y="131" font-family="Cascadia, Segoe UI Emoji" font-size="135.60657119247378px" fill="#000000" text-anchor="middle" style="white-space: pre;" direction="ltr">memória compartilhada</text></g><g stroke-linecap="round"><g transform="translate(2355 1256.0000000000036) rotate(0 310.2722124943539 -0.02293612306493742)"><path d="M0.56 -1 C103.92 -1.33, 515.72 -1.2, 618.98 -0.98 M-0.61 1.09 C103.22 1.4, 517.82 0.53, 621.15 0.05" stroke="#000000" stroke-width="4" fill="none"></path></g><g transform="translate(2355 1256.0000000000036) rotate(0 310.2722124943539 -0.02293612306493742)"><path d="M591.33 8.69 C596.93 8.34, 604.78 7.19, 622.53 -1.13 M592.66 9.87 C599.39 8.73, 604.15 5.43, 621.9 0.71" stroke="#000000" stroke-width="4" fill="none"></path></g><g transform="translate(2355 1256.0000000000036) rotate(0 310.2722124943539 -0.02293612306493742)"><path d="M591.27 -11.83 C597.05 -8.06, 604.92 -5.1, 622.53 -1.13 M592.6 -10.65 C599.43 -7.49, 604.21 -6.49, 621.9 0.71" stroke="#000000" stroke-width="4" fill="none"></path></g></g><mask></mask><g stroke-linecap="round"><g transform="translate(1520 1921.0000000000036) rotate(0 417.27320157937356 0.33163514712850883)"><path d="M0.91 0.96 C140.16 1.23, 695.52 1.15, 834.61 1.07 M-0.07 0.41 C139.07 0.43, 694.29 -0.16, 833.46 -0.48" stroke="#000000" stroke-width="4" fill="none"></path></g></g><mask></mask><g stroke-linecap="round"><g transform="translate(2355 1926.0000000000036) rotate(0 0.7886861112056067 -334.48585596158955)"><path d="M-0.25 1.14 C-0.13 -110.56, 0.64 -558.09, 0.54 -670.11 M1.82 0.7 C1.84 -110.82, -0.09 -556.82, -0.12 -668.64" stroke="#000000" stroke-width="4" fill="none"></path></g></g><mask></mask><g stroke-linecap="round"><g transform="translate(2275 2891.0000000000036) rotate(0 -362.5294189601991 -0.7027056453516707)"><path d="M0.57 0 C-120.21 0.23, -603.69 0.14, -724.79 0.28 M-0.6 -1.04 C-121.51 -1.1, -605.11 -1.69, -725.62 -1.69" stroke="#000000" stroke-width="4" fill="none"></path></g><g transform="translate(2275 2891.0000000000036) rotate(0 -362.5294189601991 -0.7027056453516707)"><path d="M-697.42 -11.58 C-705.25 -10.52, -712.51 -4.79, -724.85 -2.12 M-698.03 -12.89 C-705.75 -9.01, -714.11 -4.81, -724.91 -2.48" stroke="#000000" stroke-width="4" fill="none"></path></g><g transform="translate(2275 2891.0000000000036) rotate(0 -362.5294189601991 -0.7027056453516707)"><path d="M-697.43 8.95 C-705.07 4.03, -712.33 3.79, -724.85 -2.12 M-698.05 7.63 C-705.77 5.31, -714.12 3.31, -724.91 -2.48" stroke="#000000" stroke-width="4" fill="none"></path></g></g><mask></mask><g stroke-linecap="round"><g transform="translate(2275 2881.0000000000036) rotate(0 -0.5872330476122443 -232.56604147174858)"><path d="M-0.24 0.56 C-0.07 -76.72, 0.63 -386.31, 0.65 -464.06 M-1.83 -0.19 C-1.73 -77.76, -0.1 -388.2, 0.05 -465.69" stroke="#000000" stroke-width="4" fill="none"></path></g></g><mask></mask><g stroke-linecap="round"><g transform="translate(2275 2416.0000000000036) rotate(0 378.091962489023 -0.8328956020241094)"><path d="M0.6 -0.35 C126.2 -0.56, 628.69 -1.14, 754.35 -1.06 M-0.54 -1.57 C125.38 -1.69, 631.03 -0.59, 756.72 -0.08" stroke="#000000" stroke-width="4" fill="none"></path></g></g><mask></mask><g stroke-linecap="round"><g transform="translate(4920 856.0000000000055) rotate(0 343.12514504618593 -0.16014216965504602)"><path d="M-0.28 0.49 C113.89 0.45, 570.14 -0.82, 684.22 -0.81 M1.78 -0.3 C116.4 -0.15, 572.37 0.5, 686.53 0.31" stroke="#000000" stroke-width="4" fill="none"></path></g><g transform="translate(4920 856.0000000000055) rotate(0 343.12514504618593 -0.16014216965504602)"><path d="M659.15 9.27 C663.62 6.96, 672.51 4.41, 687.07 1.25 M657.97 10.96 C669.58 5.78, 678.48 2.5, 686.12 -0.65" stroke="#000000" stroke-width="4" fill="none"></path></g><g transform="translate(4920 856.0000000000055) rotate(0 343.12514504618593 -0.16014216965504602)"><path d="M659.15 -11.25 C663.52 -8.76, 672.4 -6.53, 687.07 1.25 M657.97 -9.56 C669.55 -7.26, 678.45 -3.05, 686.12 -0.65" stroke="#000000" stroke-width="4" fill="none"></path></g></g><mask></mask><g stroke-linecap="round"><g transform="translate(4920 851.0000000000036) rotate(0 0.14808476112375502 215.0598465719877)"><path d="M-0.75 0.37 C-0.72 72.21, 0.67 358.83, 0.77 430.59 M1.05 -0.48 C0.94 71.04, 0.57 357.18, 0.22 428.78" stroke="#000000" stroke-width="4" fill="none"></path></g></g><mask></mask><g stroke-linecap="round"><g transform="translate(4270 1276.0000000000036) rotate(0 327.4508363851055 0.1804434979248981)"><path d="M0.86 -0.97 C109.9 -1.14, 545.95 -0.15, 655.04 -0.17 M-0.14 1.13 C108.67 1.08, 544.95 1.52, 654.12 1.28" stroke="#000000" stroke-width="4" fill="none"></path></g></g><mask></mask><g stroke-linecap="round"><g transform="translate(4855 2401.0000000000036) rotate(0 -295.06500519685505 -5.79585758700523)"><path d="M0.05 -0.4 C-98.31 -2, -491.14 -7.95, -589.49 -9.39 M-1.39 -1.66 C-99.91 -3.63, -491.93 -9.65, -590.18 -11.19" stroke="#000000" stroke-width="4" fill="none"></path></g><g transform="translate(4855 2401.0000000000036) rotate(0 -295.06500519685505 -5.79585758700523)"><path d="M-562.5 -20.16 C-570.73 -17.69, -580.09 -15.54, -589 -12.52 M-562.09 -20.66 C-568.3 -19, -573.37 -16.41, -590.22 -12.15" stroke="#000000" stroke-width="4" fill="none"></path></g><g transform="translate(4855 2401.0000000000036) rotate(0 -295.06500519685505 -5.79585758700523)"><path d="M-562.82 0.36 C-570.97 -4.37, -580.22 -9.41, -589 -12.52 M-562.41 -0.14 C-568.7 -2.96, -573.7 -4.86, -590.22 -12.15" stroke="#000000" stroke-width="4" fill="none"></path></g></g><mask></mask><g stroke-linecap="round"><g transform="translate(4855 2396.0000000000036) rotate(0 0.07626880309544504 -172.6109948404137)"><path d="M-1.08 0.51 C-1.4 -57.2, -0.89 -287.99, -0.9 -345.74 M0.55 -0.26 C0.52 -57.89, 1.24 -287.1, 1.34 -344.59" stroke="#000000" stroke-width="4" fill="none"></path></g></g><mask></mask><g stroke-linecap="round"><g transform="translate(5620 2051.0000000000036) rotate(0 -382.2256861673377 -0.47711846333913854)"><path d="M-0.41 -0.48 C-127.9 -0.64, -637.55 -0.46, -765.06 -0.47 M1.58 -1.78 C-126.07 -1.81, -638.03 0.45, -766.03 0.83" stroke="#000000" stroke-width="4" fill="none"></path></g></g><mask></mask></svg>